<svg version="1.1" id="Layer_1" xmlns="http://www.w3.org/2000/svg" xlink="http://www.w3.org/1999/xlink" x="0px" y="0px"
     viewBox="0 0 570 820">
    <path fillRule="evenodd" fill="#99AAB5" clipRule="evenodd" d="M427.848,514.502c-12.701,0.079-24.949,1.044-37.154,2.773
    c-19.894,2.818-39.25,7.858-58.379,13.86c-18.19,5.709-36.328,11.588-54.542,17.223c-19.071,5.9-38.449,10.627-58.115,14.053
    c-10.844,1.889-21.755,3.468-32.685,4.774c-11.266,1.347-22.597,2.167-33.959,2.172c-8.393,0.003-16.805,0.186-25.175-0.297
    c-9.239-0.532-18.457-1.59-27.653-2.678c-10.07-1.191-20.038-3.031-29.816-5.774c-10.876-3.051-21.026-7.598-29.776-14.885
    c-1.894-1.577-3.692-3.329-5.257-5.229c-3.535-4.291-4.107-9.13-1.754-14.144c3.088-6.581,7.752-11.917,13.69-16.068
    c11.068-7.736,23.323-12.376,36.753-14.032c8.958-1.104,17.855-0.831,26.756,0.428c7.192,1.017,14.389,1.999,21.577,3.043
    c6.872,0.998,13.736,2.047,20.601,3.09c5.574,0.847,11.031,0.365,16.222-1.818c7.5-3.155,10.971-9.163,11.54-17.069
    c0.342-4.753-0.599-9.396-1.212-14.066c-1.104-8.397-2.463-16.771-3.246-25.199c-0.959-10.334,2.207-19.521,9.5-26.945
    c8.331-8.48,12.536-18.758,14.123-30.29c0.972-7.064,2.344-13.967,5.087-20.631c3.937-9.564,3.941-19.457,1.472-29.428
    c-2.15-8.683-4.309-17.366-6.26-26.095c-1.183-5.293-1.049-10.636,0.502-15.897c1.539-5.221,4.381-9.642,8.601-13.003
    c8.105-6.457,13.238-14.848,16.503-24.508c1.201-3.552,2.313-7.146,3.243-10.777c2.309-9.019,5.932-17.549,9.612-26.047
    c2.587-5.974,7.235-9.615,13.708-10.805c0.391-0.072,0.768-0.22,1.159-0.294c4.657-0.883,7.42-3.719,8.691-8.221
    c2.063-7.301,4.146-14.597,6.322-21.865c2.931-9.791,5.939-19.558,8.948-29.325c2.188-7.102,7.116-11.59,13.873-14.239
    c8.413-3.297,17.072-5.835,25.924-7.578c10.564-2.079,21.193-3.84,31.804-5.684c3.202-0.556,6.224,0.096,8.876,2.02
    c1.223,0.887,2.454,1.837,3.437,2.971c5.522,6.372,12.667,9.791,20.7,11.726c9.07,2.186,18.158,4.321,27.166,6.742
    c8.182,2.199,16.074,5.249,23.659,9.067c5.674,2.857,10.896,6.376,15.653,10.571c1.189,1.049,2.321,2.228,3.223,3.525
    c2.439,3.51,1.616,6.765-2.164,8.8c-1.114,0.6-2.33,1.067-3.552,1.405c-6.079,1.683-12.226,3.078-18.497,3.826
    c-2.379,0.284-4.779,0.458-7.174,0.521c-10.23,0.264-20.465,0.458-30.697,0.699c-3.275,0.077-6.552,0.199-9.826,0.339
    c-0.708,0.03-1.43,0.155-2.11,0.355c-2.317,0.682-3.149,1.86-2.836,4.259c0.185,1.414,0.656,2.789,0.959,4.19
    c0.606,2.803,1.378,5.587,1.728,8.423c0.454,3.682-1.028,6.733-3.886,9.073c-2.782,2.278-5.673,4.363-9.038,5.78
    c-1.82,0.766-3.537,1.859-5.15,3.014c-2.141,1.532-3.026,3.688-2.302,6.313c0.401,1.458,0.812,2.933,1.421,4.31
    c6.689,15.124,13.42,30.229,20.135,45.341c2.776,6.251,6.439,11.941,10.718,17.268c1.444,1.798,2.765,3.732,3.879,5.749
    c2.497,4.517,2.719,9.245,1.012,14.125c-0.813,2.327-1.549,4.706-2.029,7.119c-0.796,3.995-0.206,7.952,0.771,11.868
    c1.063,4.259,2.099,8.525,3.089,12.801c1.312,5.662,3.818,10.85,6.442,15.963c4.523,8.813,9.233,17.533,13.848,26.301
    c1.153,2.191,2.38,4.358,3.34,6.635c5.425,12.858,13.063,24.344,21.769,35.158c4.096,5.088,7.027,10.64,7.904,17.191
    c0.157,1.173,0.559,2.337,1.006,3.442c1.642,4.056,4.924,5.84,9.218,5.005c1.325-0.258,2.649-0.616,3.907-1.104
    c5.208-2.015,10.437-3.987,15.572-6.174c11.975-5.099,24.451-8.334,37.289-10.22c8.633-1.268,17.33-1.812,26.059-1.551
    c7.107,0.212,12.646,3.613,17.119,8.884c3.933,4.633,6.26,10.013,6.73,16.105c0.303,3.923-0.501,7.631-2.6,11.011
    c-3.663,5.896-8.773,10.184-15.099,12.863c-4.247,1.799-8.673,3.222-13.101,4.537c-22.785,6.77-45.597,13.454-68.4,20.162
    c-7.455,2.192-15.11,3.255-22.8,4.229C438.791,514.38,433.151,514.71,427.848,514.502z M275.186,384.069
    c5.412-0.073,10.587-1.342,15.651-3.144c6.794-2.417,13.121-5.826,19.464-9.198c5.578-2.966,11.336-5.498,17.35-7.47
    c6.015-1.972,12.176-3.222,18.42-4.136c1.792-0.263,3.332-0.063,4.865,1.229c1.627,1.371,3.558,2.478,5.516,3.334
    c2.766,1.21,5.058,3.018,7.35,4.893c2.102,1.719,4.209,3.443,6.426,5.007c2.452,1.729,5.225,2.73,8.249,2.944
    c1.696,0.12,2.566-0.37,3.007-1.722c0.434-1.331-0.005-2.311-1.484-3.104c-1.336-0.717-2.675-1.445-4.07-2.031
    c-4.455-1.868-7.549-5.264-10.328-9.03c-0.283-0.386-0.553-0.787-0.778-1.209c-1.029-1.929-0.911-2.966,0.617-4.516
    c0.669-0.679,1.425-1.29,2.212-1.829c1.582-1.084,3.197-2.12,4.824-3.134c8.88-5.532,13.67-13.958,16.328-23.699
    c0.963-3.528-0.895-7.598-6.426-6.389c-1.084,0.237-2.174,0.587-3.162,1.082c-2.424,1.213-4.891,2.385-7.162,3.85
    c-7.791,5.024-15.507,10.167-23.253,15.263c-0.601,0.395-1.201,0.793-1.819,1.159c-5.098,3.01-12.707,3.618-17.756-2.393
    c-9.258-11.019-18.872-21.74-28.424-32.509c-4.561-5.142-9.034-10.415-14.047-15.091c-9.686-9.036-21.197-11.491-34.031-8.347
    c-3.181,0.779-6.358,0.714-8.672-2.355c-0.83-1.1-2.401-1.095-3.435-0.27c-1.016,0.811-1.224,1.932-0.504,3.211
    c0.976,1.736,2.434,2.936,4.295,3.647c0.74,0.283,1.517,0.505,2.208,0.88c3.508,1.907,7.013,3.822,10.477,5.808
    c1.169,0.67,2.316,1.448,3.29,2.371c1.353,1.282,1.488,2.776,0.469,4.342c-0.602,0.925-1.376,1.765-2.188,2.52
    c-1.11,1.033-2.403,1.874-3.481,2.937c-1.244,1.226-2.482,2.505-3.46,3.94c-1.021,1.499-0.628,2.704,0.937,3.611
    c0.749,0.434,1.604,0.699,2.431,0.984c5.58,1.92,10.245,5.141,13.992,9.711c3.115,3.8,5.517,8.031,7.596,12.456
    c1.579,3.36,3.83,6.119,7.173,7.785c1.771,0.882,3.683,1.53,5.59,2.084c4.593,1.337,9.247,2.47,13.819,3.872
    c1.56,0.479,3.005,1.428,4.395,2.328c1.046,0.678,1.205,1.755,0.789,2.98c-0.67,1.982-1.908,3.484-3.602,4.647
    c-4.876,3.349-9.81,6.616-14.616,10.063c-3.033,2.175-6.339,3.711-9.853,4.802c-2.506,0.778-5.079,1.381-7.658,1.868
    c-1.495,0.282-2.226,1.232-2.709,2.418c-0.734,1.803,0.337,3.39,2.304,3.537C273.261,384.129,274.226,384.069,275.186,384.069z
    M412.436,417.996c-5.32,0.607-9.428-1.226-12.495-5.337c-1.96-2.626-3.727-5.396-5.688-8.021c-1.674-2.238-3.395-4.459-5.289-6.508
    c-2.258-2.442-5.063-3.65-8.53-3.625c-14.874,0.105-29.749-0.119-44.608,0.878c-5.924,0.397-11.732,1.312-17.466,2.784
    c-11.132,2.858-21.555,7.505-31.659,12.863c-21.102,11.191-42.136,22.512-63.212,33.751c-2.109,1.125-4.27,2.188-6.493,3.058
    c-6.778,2.652-13.152,2.103-18.849-2.757c-1.265-1.079-2.618-1.371-4.055-0.964c-1.223,2.113-0.853,3.946,0.306,5.768
    c1.501,2.36,2.897,4.786,4.402,7.145c1.865,2.922,3.671,3.501,6.923,2.199c2.148-0.86,4.26-1.814,6.366-2.774
    c7.625-3.474,15.33-6.787,22.83-10.514c5.309-2.639,10.611-5.242,16.351-6.726c6.945-1.795,13.929-3.475,20.95-4.941
    c12.571-2.626,25.173-5.11,37.783-7.549c9.243-1.787,18.515-3.426,27.782-5.091c9.369-1.683,18.813-2.799,28.334-2.919
    c5.271-0.067,10.564,0.053,15.814,0.491c4.919,0.411,9.84,1.127,14.679,2.111c8.295,1.688,15.952,5.071,23.091,9.605
    c1.74,1.106,3.588,1.535,5.767,1.493c0.032-2.056,0.173-3.953-0.868-5.706c-3.401-5.735-7.041-11.271-12.645-15.169
    c-0.425-0.296-0.9-0.517-1.354-0.772c-0.178,0.095-0.357,0.19-0.535,0.285C410.295,413.436,411.869,415.452,412.436,417.996z
    M531.434,452.164c-1.198,0-2.397-0.024-3.595,0.012c-0.472,0.015-0.944,0.147-1.409,0.257
    c-11.746,2.768-23.225,6.371-34.398,10.945c-5.016,2.053-9.972,4.308-15.115,5.974c-5.453,1.766-11.086,2.979-16.658,4.365
    c-9.908,2.465-19.822,4.894-29.361,8.618c-8.398,3.279-16.299,7.423-22.961,13.59c-2.088,1.934-4.373,3.438-6.883,4.692
    c-1.785,0.893-3.547,1.833-5.292,2.803c-0.547,0.304-1.083,0.702-1.483,1.177c-0.688,0.812-0.674,1.771-0.197,2.695
    c0.553,1.075,1.504,1.422,2.624,1.173c1.771-0.394,3.5-1.045,5.321-0.1c0.334,0.173,0.918-0.101,1.377-0.208
    c0.831-0.194,1.645-0.538,2.484-0.611c4.277-0.374,8.568-0.604,12.84-1.027c11.043-1.096,22.094-2.133,33.11-3.448
    c10.082-1.203,19.937-3.518,29.504-6.988c13.437-4.875,27.089-9.056,41.138-11.738c9.863-1.884,18.968-5.529,27.507-10.683
    c1.683-1.015,3.302-2.299,4.581-3.778c2.012-2.326,2.014-4.998,0.25-7.517c-0.77-1.098-1.707-2.16-2.781-2.947
    C545.908,454.932,539.169,452.074,531.434,452.164z M300.207,147.508c-2.497,2.566-2.623,5.051-1.415,7.671
    c2.242,4.857,4.548,9.685,6.83,14.524c1.71,3.628,3.095,7.366,3.653,11.359c0.746,5.312,3.006,9.847,6.576,13.851
    c1.736,1.949,3.073,4.255,4.586,6.403c0.727,1.032,0.833,2.11,0.637,3.391c-0.605,3.952-1.105,7.941-0.533,11.937
    c0.252,1.761,0.295,3.457,0.081,5.225c-0.764,6.33,2.454,12.408,7.91,15.196c1.442,0.737,2.361,0.674,3.29-0.226
    c0.877-0.849,1.012-1.996,0.399-3.284c-0.41-0.863-0.889-1.706-1.19-2.607c-2.102-6.273-3.316-12.668-2.439-19.319
    c0.504-3.806,1.008-7.625,2.88-11.064c0.63-1.156,1.472-2.197,2.138-3.175c2.057,0.326,3.257,1.353,4.263,2.628
    c2.228,2.823,4.349,5.733,6.648,8.496c2.142,2.571,4.448,5.006,6.714,7.473c0.275,0.301,0.74,0.429,1.125,0.641
    c0.817-1.003,0.104-1.659-0.211-2.311c-2.084-4.315-4.188-8.621-6.324-12.911c-0.559-1.123-0.865-2.092,0.742-2.794
    c4.196,2.115,8.25,4.714,12.725,6.613c-1.043-1.677-2.221-3.166-3.504-4.557c-5.422-5.875-10.973-11.634-16.291-17.601
    c-5.106-5.729-7.496-12.544-7.256-20.252c0.121-3.871,2.127-6.737,5.702-8.042c0.298-0.109,0.627-0.136,0.921-0.253
    c1.396-0.556,1.91-1.426,1.676-2.786c-0.206-1.196-0.988-1.957-2.281-2.052c-3.395-0.25-6.408,0.702-8.503,3.454
    c-1.138,1.495-2.171,3.251-2.618,5.048c-0.766,3.078-1.27,6.265-1.458,9.432c-0.354,5.931,0.45,11.813,1.513,17.638
    c0.391,2.149-0.191,4.004-0.813,6.218c-3.71-3.5-7.29-6.601-9.388-11.104c-3.675-7.891-7.51-15.709-11.408-23.493
    C304.019,153.75,302.111,150.801,300.207,147.508z"/>
</svg>